<svg width="40" height="40" viewBox="0 0 40 40" fill="none" xmlns="http://www.w3.org/2000/svg">
<path d="M21.6667 5.83331C21.6667 5.17027 21.4033 4.53439 20.9345 4.06555C20.4656 3.59671 19.8297 3.33331 19.1667 3.33331C18.5037 3.33331 17.8678 3.59671 17.3989 4.06555C16.9301 4.53439 16.6667 5.17027 16.6667 5.83331V16.6666H5.83337C5.17033 16.6666 4.53445 16.93 4.06561 17.3989C3.59677 17.8677 3.33337 18.5036 3.33337 19.1666C3.33337 19.8297 3.59677 20.4656 4.06561 20.9344C4.53445 21.4033 5.17033 21.6666 5.83337 21.6666H16.6667V32.5C16.6667 33.163 16.9301 33.7989 17.3989 34.2677C17.8678 34.7366 18.5037 35 19.1667 35C19.8297 35 20.4656 34.7366 20.9345 34.2677C21.4033 33.7989 21.6667 33.163 21.6667 32.5V21.6666H32.5C33.1631 21.6666 33.799 21.4033 34.2678 20.9344C34.7366 20.4656 35 19.8297 35 19.1666C35 18.5036 34.7366 17.8677 34.2678 17.3989C33.799 16.93 33.1631 16.6666 32.5 16.6666H21.6667V5.83331Z" fill="black"/>
</svg>
