<svg width="270" height="52" viewBox="0 0 270 52" fill="none" xmlns="http://www.w3.org/2000/svg">
<path d="M43.611 24.083H42V24H24V32H35.303C33.654 36.657 29.223 40 24 40C17.373 40 12 34.627 12 28C12 21.373 17.373 16 24 16C27.059 16 29.842 17.154 31.961 19.039L37.618 13.382C34.046 10.053 29.268 8 24 8C12.955 8 4 16.955 4 28C4 39.045 12.955 48 24 48C35.045 48 44 39.045 44 28C44 26.659 43.862 25.35 43.611 24.083Z" fill="#FFC107"/>
<path d="M6.30603 18.691L12.877 23.51C14.655 19.108 18.961 16 24 16C27.059 16 29.842 17.154 31.961 19.039L37.618 13.382C34.046 10.053 29.268 8 24 8C16.318 8 9.65603 12.337 6.30603 18.691Z" fill="#FF3D00"/>
<path d="M24 48C29.166 48 33.86 46.023 37.409 42.808L31.219 37.57C29.1436 39.1483 26.6075 40.002 24 40C18.798 40 14.381 36.683 12.717 32.054L6.19501 37.079C9.50501 43.556 16.227 48 24 48Z" fill="#4CAF50"/>
<path d="M43.611 24.083H42V24H24V32H35.303C34.5142 34.2164 33.0934 36.1532 31.216 37.571L31.219 37.569L37.409 42.807C36.971 43.205 44 38 44 28C44 26.659 43.862 25.35 43.611 24.083Z" fill="#1976D2"/>
<path d="M139.88 10.38C140.636 9.50856 141.213 8.49634 141.576 7.40147C141.94 6.30661 142.084 5.15066 142 4C139.679 4.18737 137.524 5.27911 136 7.04C135.27 7.88395 134.717 8.86576 134.374 9.92729C134.03 10.9888 133.903 12.1085 134 13.22C135.132 13.2294 136.252 12.9782 137.271 12.4857C138.291 11.9932 139.183 11.2727 139.88 10.38ZM144.92 25.26C144.933 23.7275 145.337 22.2236 146.093 20.8904C146.849 19.5572 147.932 18.4385 149.24 17.64C148.414 16.4505 147.323 15.4697 146.052 14.7753C144.782 14.081 143.367 13.6923 141.92 13.64C138.8 13.32 135.92 15.46 134.26 15.46C132.6 15.46 130.26 13.68 127.66 13.72C125.96 13.776 124.304 14.2716 122.853 15.1584C121.402 16.0452 120.205 17.293 119.38 18.78C115.86 24.9 118.48 34 122 38.94C123.6 41.36 125.6 44.1 128.24 44C130.88 43.9 131.74 42.36 134.8 42.36C137.86 42.36 138.8 44 141.4 43.94C144 43.88 145.84 41.46 147.52 39.04C148.71 37.2831 149.64 35.3632 150.28 33.34C148.695 32.664 147.343 31.5386 146.39 30.1026C145.438 28.6667 144.926 26.9832 144.92 25.26Z" fill="#545454"/>
<g clip-path="url(#clip0_154_1327)">
<path d="M268 24C268 10.7452 257.255 0 244 0C230.745 0 220 10.7451 220 24C220 35.979 228.776 45.9081 240.25 47.7084V30.9375H234.156V24H240.25V18.7125C240.25 12.6975 243.833 9.375 249.315 9.375C251.941 9.375 254.688 9.84375 254.688 9.84375V15.75H251.661C248.68 15.75 247.75 17.6001 247.75 19.4981V24H254.406L253.342 30.9375H247.75V47.7084C259.223 45.9081 268 35.9792 268 24Z" fill="#1877F2"/>
<path d="M253.342 30.9375L254.406 24H247.75V19.4981C247.75 17.5999 248.68 15.75 251.661 15.75H254.688V9.84375C254.688 9.84375 251.941 9.375 249.315 9.375C243.833 9.375 240.25 12.6975 240.25 18.7125V24H234.156V30.9375H240.25V47.7084C241.491 47.9028 242.744 48.0003 244 48C245.256 48.0004 246.509 47.9029 247.75 47.7084V30.9375H253.342Z" fill="white"/>
</g>
<defs>
<clipPath id="clip0_154_1327">
<rect width="48" height="48" fill="white" transform="translate(220)"/>
</clipPath>
</defs>
</svg>
