<svg width="123" height="109" viewBox="0 0 123 109" fill="none" xmlns="http://www.w3.org/2000/svg">
<rect width="123" height="109" rx="30" fill="#4285F4"/>
<path d="M82.2167 31.0459C81.2601 30.5136 80.208 30.1751 79.1205 30.0497C78.033 29.9244 76.9315 30.0146 75.8789 30.3153C74.8263 30.616 73.8433 31.1212 72.9861 31.8021C72.1289 32.483 71.4144 33.3261 70.8833 34.2834L55.4125 62.125L46.5583 53.2709C45.7896 52.4749 44.8701 51.8401 43.8534 51.4033C42.8367 50.9666 41.7432 50.7367 40.6367 50.7271C39.5302 50.7175 38.4328 50.9283 37.4087 51.3473C36.3846 51.7664 35.4541 52.3851 34.6717 53.1676C33.8893 53.95 33.2705 54.8804 32.8515 55.9046C32.4325 56.9287 32.2216 58.026 32.2312 59.1325C32.2409 60.239 32.4707 61.3325 32.9075 62.3492C33.3442 63.3659 33.9791 64.2855 34.775 65.0542L51.4417 81.7209C53.0167 83.3 55.1417 84.1667 57.3333 84.1667L58.4875 84.0834C59.7648 83.9047 60.9832 83.432 62.0467 82.7024C63.1103 81.9729 63.99 81.0065 64.6167 79.8792L85.45 42.3792C85.9819 41.4227 86.3202 40.3709 86.4455 39.2837C86.5709 38.1965 86.4809 37.0953 86.1807 36.0428C85.8804 34.9904 85.3758 34.0075 84.6957 33.1501C84.0155 32.2927 83.1731 31.5777 82.2167 31.0459Z" fill="black"/>
</svg>
