<svg width="30" height="30" viewBox="0 0 30 30" fill="none" xmlns="http://www.w3.org/2000/svg">
<path fill-rule="evenodd" clip-rule="evenodd" d="M5.625 25.3125C5.37636 25.3125 5.1379 25.2137 4.96209 25.0379C4.78627 24.8621 4.6875 24.6236 4.6875 24.375V5.625C4.6875 5.37636 4.78627 5.1379 4.96209 4.96209C5.1379 4.78627 5.37636 4.6875 5.625 4.6875H22.9687C23.3417 4.6875 23.6994 4.53934 23.9631 4.27562C24.2268 4.0119 24.375 3.65421 24.375 3.28125C24.375 2.90829 24.2268 2.5506 23.9631 2.28688C23.6994 2.02316 23.3417 1.875 22.9687 1.875H5.625C4.63044 1.875 3.67661 2.27009 2.97335 2.97335C2.27009 3.67661 1.875 4.63044 1.875 5.625V24.375C1.875 25.3696 2.27009 26.3234 2.97335 27.0266C3.67661 27.7299 4.63044 28.125 5.625 28.125H24.375C25.3696 28.125 26.3234 27.7299 27.0266 27.0266C27.7299 26.3234 28.125 25.3696 28.125 24.375V18.2812C28.125 17.9083 27.9768 17.5506 27.7131 17.2869C27.4494 17.0232 27.0917 16.875 26.7187 16.875C26.3458 16.875 25.9881 17.0232 25.7244 17.2869C25.4607 17.5506 25.3125 17.9083 25.3125 18.2812V24.375C25.3125 24.6236 25.2137 24.8621 25.0379 25.0379C24.8621 25.2137 24.6236 25.3125 24.375 25.3125H5.625ZM29.5875 8.775C29.8359 8.50842 29.9711 8.15583 29.9647 7.79152C29.9583 7.42721 29.8107 7.07961 29.553 6.82196C29.2954 6.56431 28.9478 6.41672 28.5835 6.4103C28.2192 6.40387 27.8666 6.5391 27.6 6.7875L17.1787 17.2069L13.6669 13.5769C13.5387 13.443 13.3854 13.3358 13.2157 13.2613C13.046 13.1869 12.8632 13.1467 12.678 13.1432C12.4927 13.1396 12.3085 13.1727 12.1361 13.2406C11.9636 13.3084 11.8063 13.4097 11.6731 13.5385C11.5399 13.6674 11.4335 13.8213 11.36 13.9914C11.2865 14.1615 11.2473 14.3445 11.2448 14.5298C11.2422 14.7151 11.2763 14.8991 11.3451 15.0712C11.4139 15.2432 11.516 15.4 11.6456 15.5325L16.1512 20.19C16.2809 20.3245 16.436 20.4317 16.6076 20.5056C16.7791 20.5794 16.9637 20.6184 17.1504 20.6201C17.3372 20.6219 17.5225 20.5864 17.6954 20.5158C17.8683 20.4451 18.0254 20.3408 18.1575 20.2087L29.5875 8.775Z" fill="black"/>
</svg>
